<?xml version="1.0" standalone="no"?><!DOCTYPE svg PUBLIC "-//W3C//DTD SVG 1.1//EN" "http://www.w3.org/Graphics/SVG/1.1/DTD/svg11.dtd"><svg width="50" height="50" viewBox="0 0 50 50" version="1.1" xmlns="http://www.w3.org/2000/svg" xmlns:xlink="http://www.w3.org/1999/xlink"><defs><style type="text/css"><![CDATA[
@font-face { font-family: ifont; src: url(http://at.alicdn.com/t/font_1442373896_4754455.eot?#iefix) format(embedded-opentype), url(http://at.alicdn.com/t/font_1442373896_4754455.woff) format(woff), url(http://at.alicdn.com/t/font_1442373896_4754455.ttf) format(truetype), url(http://at.alicdn.com/t/font_1442373896_4754455.svg#ifont) format(svg); }

]]></style></defs><g class="transform-group"><g transform="scale(0.048828125, 0.048828125)"><path d="M511.806595 64.716954c-247.00872 0-447.248254 200.239534-447.248254 447.248254s200.239534 447.248254 447.248254 447.248254 447.248254-200.239534 447.248254-447.248254S758.815315 64.716954 511.806595 64.716954zM650.155547 767.790734l0-29.220508L384.788713 738.570225c0 14.710027 0.596588 28.623921 1.788739 41.742706l-44.724621 0c1.590218-11.131525 2.783393-22.760376 3.578502-34.885532 0.795109-12.125155 1.192152-22.760376 1.192152-31.903617L346.623485 469.625914c0-17.890462-0.397043-33.095769-1.192152-45.61899-0.795109-12.523221-1.788739-21.765723-2.981914-27.729551 8.746198 0.795109 19.380396 1.391696 31.903617 1.788739 12.523221 0.397043 25.840528 0.795109 39.953967 1.192152 14.113439 0.397043 28.623921 0.695848 43.532469 0.89437 14.908548 0.198521 29.121248 0.297782 42.638099 0.297782 13.516852 0 28.326139-0.099261 44.426839-0.297782 16.1007-0.198521 31.903617-0.497327 47.40773-0.89437 15.505136-0.398066 29.716812-0.89437 42.638099-1.490957 12.920264-0.596588 22.958898-1.092891 30.114878-1.490957-0.795109 9.541307-1.590218 20.871353-2.385327 33.991162-0.795109 13.119809-1.192152 25.045419-1.192152 35.779901-0.398066 25.443485 0.795109 49.098231 3.577478 70.963215-8.746198-0.795109-17.889439-1.490957-27.430746-2.087545-9.541307-0.596588-20.274766-0.99363-32.202423-1.193175-11.926634-0.198521-25.344225-0.397043-40.251749-0.596588-14.908548-0.198521-32.102139-0.297782-51.582819-0.297782L384.192126 532.835538l0 52.477188 133.578298 0c34.984792 0 66.689888-0.297782 95.114265-0.89437 28.4254-0.596588 54.365188-1.292436 77.821413-2.087545-1.988284 11.131525-2.981914 28.027333-2.981914 50.688449l0 75.733868c0 9.143241 0.297782 18.088984 0.89437 26.835182 0.596588 8.746198 1.689479 19.479657 3.279696 32.202423L650.155547 767.790734zM756.600881 378.983497c0.596588 8.746198 1.490957 17.09433 2.683109 25.045419l-41.742706 0L717.541283 333.662289 304.879756 333.662289l0 72.15639L263.137049 405.818679c1.192152-9.144264 2.087545-18.386766 2.683109-27.729551 0.596588-9.342786 0.89437-19.778462 0.89437-31.30703 0-20.275789-1.193175-36.773532-3.578502-49.495274 9.541307 0.795109 21.170159 1.490957 34.885532 2.087545 13.715373 0.596588 30.015617 1.092891 48.898687 1.490957 18.884093 0.397043 40.848337 0.795109 65.894779 1.192152 25.046443 0.397043 54.067406 0.596588 87.063915 0.596588-3.180436-5.16872-6.16235-9.939373-8.944719-14.31196-2.78237-4.373611-5.863545-8.646937-9.243525-12.821003-3.378957-4.174066-6.957459-8.348132-10.734482-12.523221-3.777023-4.174066-8.05035-8.845459-12.821003-14.014178L489.146503 227.514737c5.565762 7.15598 10.534937 13.814634 14.908548 19.976984 4.372587 6.16235 8.547677 12.025894 12.523221 17.591657 3.975545 5.565762 7.851828 11.429307 11.628852 17.591657 3.777023 6.16235 7.851828 12.821003 12.224416 19.976984 109.72503 0 183.073572-1.788739 220.046648-5.367241-1.988284 9.93835-3.279696 18.088984-3.876284 24.449855-0.596588 6.360871-0.89437 15.107069-0.89437 26.238594C755.706511 359.900883 756.004293 370.237299 756.600881 378.983497zM384.192126 617.516172l265.963421 0 0 88.853677-265.963421 0 0-88.853677ZM384.192126 431.460686l240.321414 0 0 71.559802-240.321414 0 0-71.559802Z" fill="#ea5404"></path></g></g></svg>