<?xml version="1.0" standalone="no"?><!DOCTYPE svg PUBLIC "-//W3C//DTD SVG 1.1//EN" "http://www.w3.org/Graphics/SVG/1.1/DTD/svg11.dtd"><svg width="50" height="50" viewBox="0 0 50 50" version="1.1" xmlns="http://www.w3.org/2000/svg" xmlns:xlink="http://www.w3.org/1999/xlink"><defs><style type="text/css"><![CDATA[
@font-face { font-family: ifont; src: url(http://at.alicdn.com/t/font_1442373896_4754455.eot?#iefix) format(embedded-opentype), url(http://at.alicdn.com/t/font_1442373896_4754455.woff) format(woff), url(http://at.alicdn.com/t/font_1442373896_4754455.ttf) format(truetype), url(http://at.alicdn.com/t/font_1442373896_4754455.svg#ifont) format(svg); }

]]></style></defs><g class="transform-group"><g transform="scale(0.048828125, 0.048828125)"><path d="M511.743662 100.883665c55.481615 0 109.283985 10.857279 159.913083 32.272008 48.920176 20.691251 92.861968 50.321082 130.606617 88.065731s67.37448 81.687464 88.065731 130.606617c21.414729 50.629097 32.272008 104.431467 32.272008 159.913083 0 55.482639-10.857279 109.286032-32.272008 159.91513-20.691251 48.919153-50.321082 92.860944-88.065731 130.605593-37.744649 37.742603-81.686441 67.372433-130.606617 88.064708-50.630121 21.413706-104.432491 32.272008-159.913083 32.272008s-109.283985-10.858302-159.913083-32.272008c-48.920176-20.692275-92.862991-50.322106-130.606617-88.064708-37.744649-37.744649-67.373457-81.686441-88.065731-130.605593-21.413706-50.630121-32.272008-104.433514-32.272008-159.91513 0-55.481615 10.858302-109.283985 32.272008-159.913083 20.691251-48.920176 50.321082-92.862991 88.065731-130.606617s81.686441-67.373457 130.606617-88.065731C402.458653 111.741967 456.262046 100.883665 511.743662 100.883665M511.743662 64.044642c-247.25636 0-447.696462 200.440102-447.696462 447.696462 0 247.25636 200.440102 447.696462 447.696462 447.696462 247.25636 0 447.696462-200.440102 447.696462-447.696462C959.440124 264.485767 759.000022 64.044642 511.743662 64.044642L511.743662 64.044642zM676.266739 478.689337l52.658314-129.763412 0.477884-1.177825 0-34.974559L560.995389 312.77354l0 436.44521 38.272675 0L599.268064 349.10398l88.708368 0-56.407708 139.135874 3.590781 3.048429c41.005926 34.803667 61.798485 70.380954 61.798485 105.746416l0.00307 0.205685c0.620124 19.554358-3.119037 33.655518-11.115152 41.911552-6.325056 6.52767-15.421224 9.700943-27.807323 9.700943-0.943488 0-1.90028-0.01842-2.87549-0.056282l-0.251733-0.00614c-4.937452 0-11.813047-0.63138-20.435425-1.874697l-0.462534-0.067538-28.913517 0 2.842745 8.56405c2.431376 7.324826 4.297886 16.056698 5.54632 25.956162l0.719384 5.695722 50.414203 0 0.391926-0.01228c23.204491-1.400906 40.968064-9.746992 52.801577-24.806989 11.540847-14.688537 17.400299-35.94363 17.414625-63.172785C736.488309 555.766806 716.654588 515.284813 676.266739 478.689337zM418.634054 273.927813l-38.271652 0 0 85.461417-93.230358 0 0 368.464933 38.272675 0 0-36.904515L475.533972 690.949648l0 36.904515 38.272675 0L513.806647 359.38923l-95.173616 0L418.633031 273.927813zM475.533972 543.334659l0 111.284549-56.899918 0 0-111.284549L475.533972 543.334659zM418.634054 507.004219l0-111.284549 56.899918 0 0 111.284549L418.634054 507.004219zM380.361379 543.334659l0 111.284549-54.957683 0 0-111.284549L380.361379 543.334659zM380.361379 395.71967l0 111.284549-54.957683 0 0-111.284549L380.361379 395.71967z" fill="#ea5404"></path></g></g></svg>